<svg xmlns="http://www.w3.org/2000/svg" width="36" height="27" viewBox="0 0 36 27">
  <metadata><?xpacket begin="﻿" id="W5M0MpCehiHzreSzNTczkc9d"?>
<x:xmpmeta xmlns:x="adobe:ns:meta/" x:xmptk="Adobe XMP Core 5.6-c140 79.160451, 2017/05/06-01:08:21        ">
   <rdf:RDF xmlns:rdf="http://www.w3.org/1999/02/22-rdf-syntax-ns#">
      <rdf:Description rdf:about=""/>
   </rdf:RDF>
</x:xmpmeta>
                                                                                                    
                                                                                                    
                                                                                                    
                                                                                                    
                                                                                                    
                                                                                                    
                                                                                                    
                                                                                                    
                                                                                                    
                                                                                                    
                                                                                                    
                                                                                                    
                                                                                                    
                                                                                                    
                                                                                                    
                                                                                                    
                                                                                                    
                                                                                                    
                                                                                                    
                                                                                                    
                           
<?xpacket end="w"?></metadata>
<defs>
    <style>
      .cls-1 {
        fill: #87aaa9;
        fill-rule: evenodd;
      }
    </style>
  </defs>
  <path id="Forma_1" data-name="Forma 1" class="cls-1" d="M1041.86,106.217a0.586,0.586,0,0,0-.53-0.212,0.62,0.62,0,0,0-.14.023l-34.74,9.465a0.586,0.586,0,0,0-.44.563,0.6,0.6,0,0,0,.41.586l12.71,4.172-1.14,9.111a0.6,0.6,0,0,0,.6.675,0.564,0.564,0,0,0,.36-0.124l4.66-3.569,4.07,5.837a0.62,0.62,0,0,0,.5.257c0.01,0,.02,0,0.04,0a0.6,0.6,0,0,0,.49-0.325l13.22-25.806A0.6,0.6,0,0,0,1041.86,106.217Zm-4.16,2.006-18,11.516-11.01-3.614Zm-18.34,20.429,0.83-6.633,2.73,3.905Zm8.74,2.588-7.46-10.674,19.23-12.307Z" transform="translate(-1006 -106)"/>
</svg>
