<svg xmlns="http://www.w3.org/2000/svg" width="50" height="49" viewBox="0 0 50 49">
  <metadata><?xpacket begin="﻿" id="W5M0MpCehiHzreSzNTczkc9d"?>
<x:xmpmeta xmlns:x="adobe:ns:meta/" x:xmptk="Adobe XMP Core 5.6-c140 79.160451, 2017/05/06-01:08:21        ">
   <rdf:RDF xmlns:rdf="http://www.w3.org/1999/02/22-rdf-syntax-ns#">
      <rdf:Description rdf:about=""/>
   </rdf:RDF>
</x:xmpmeta>
                                                                                                    
                                                                                                    
                                                                                                    
                                                                                                    
                                                                                                    
                                                                                                    
                                                                                                    
                                                                                                    
                                                                                                    
                                                                                                    
                                                                                                    
                                                                                                    
                                                                                                    
                                                                                                    
                                                                                                    
                                                                                                    
                                                                                                    
                                                                                                    
                                                                                                    
                                                                                                    
                           
<?xpacket end="w"?></metadata>
<defs>
    <style>
      .cls-1 {
        fill: #2fccc6;
        fill-rule: evenodd;
      }
    </style>
  </defs>
  <path class="cls-1" d="M350.81,1071.98l-9.329-6.7a0.786,0.786,0,0,0-1.078.17,0.762,0.762,0,0,0,.171,1.07l9.329,6.7a0.755,0.755,0,0,0,.453.14,0.786,0.786,0,0,0,.625-0.31A0.762,0.762,0,0,0,350.81,1071.98Zm-22.978-3.66a0.777,0.777,0,0,0-.883-0.64l-11.386,1.79a0.764,0.764,0,0,0,.12,1.52c0.04,0,.081-0.01.122-0.01l11.386-1.79A0.761,0.761,0,0,0,327.832,1068.32Zm30.847,1.26-17.325-12.44a0.828,0.828,0,0,0-.575-0.13,0.778,0.778,0,0,0-.5.3l-7.555,10.29-1.04-6.48a0.775,0.775,0,0,0-.309-0.5,0.737,0.737,0,0,0-.575-0.13l-21.146,3.31a0.771,0.771,0,0,0-.641.88l4.13,25.73a0.726,0.726,0,0,0,.308.49,0.752,0.752,0,0,0,.454.15,0.5,0.5,0,0,0,.121-0.01l4.859-.76v8.19a0.766,0.766,0,0,0,.772.76h21.41a0.765,0.765,0,0,0,.772-0.76v-2.15a9.981,9.981,0,0,0,1.5-1.04l1.924,1.9-0.619.61a0.759,0.759,0,0,0,0,1.08l6.987,6.91a0.788,0.788,0,0,0,1.092,0l2.33-2.31a0.744,0.744,0,0,0,.226-0.54,0.779,0.779,0,0,0-.226-0.54l-6.988-6.9a0.763,0.763,0,0,0-1.092,0l-0.619.61-1.923-1.9a9.609,9.609,0,0,0,2.354-6.32q0-.375-0.03-0.75l12.1-16.48A0.763,0.763,0,0,0,358.679,1069.58Zm-11.169,27.53,5.9,5.82-1.238,1.23-5.895-5.83Zm-28.629-24.69v3.12l-2.286.36a0.764,0.764,0,0,0,.12,1.52,0.507,0.507,0,0,0,.122-0.01l2.044-.32v5.05l-1.253.19a0.764,0.764,0,0,0,.119,1.52,0.5,0.5,0,0,0,.122-0.01l1.012-.16v5.05l-4.338.68-3.888-24.22,19.621-3.08,1.161,7.24-1.693,2.3H319.653A0.768,0.768,0,0,0,318.881,1072.42Zm21.411,25.28H320.425v-24.52h19.866v5.56a9.917,9.917,0,0,0-3.345-.57c-0.216,0-.43,0-0.644.02a0.539,0.539,0,0,0-.179-0.02H324.594a0.76,0.76,0,1,0,0,1.52h7.062a10.115,10.115,0,0,0-2.245,1.95,9.646,9.646,0,0,0-1.746,3.04h-3.071a0.766,0.766,0,0,0-.772.76,0.775,0.775,0,0,0,.772.77h2.669a9.635,9.635,0,0,0,.437,4.98h-3.106a0.765,0.765,0,1,0,0,1.53h3.824a9.816,9.816,0,0,0,8.528,4.88,9.918,9.918,0,0,0,3.346-.57v0.67h0Zm2.513-4.02h0a8.34,8.34,0,0,1-13.242-2.07h0a8.026,8.026,0,0,1-.9-3.72,8.132,8.132,0,0,1,1.934-5.27,8.321,8.321,0,0,1,6.352-2.93,8.285,8.285,0,0,1,8.237,7.3h0a8.48,8.48,0,0,1,.048.9A8.1,8.1,0,0,1,342.805,1093.68Zm3.55-8.62a9.734,9.734,0,0,0-4.52-5.61v-3.98l4.2,3.02a0.758,0.758,0,0,0,.453.14,0.787,0.787,0,0,0,.626-0.31,0.763,0.763,0,0,0-.172-1.07l-5.1-3.66v-1.17a0.768,0.768,0,0,0-.772-0.77H339.14l-1.529-1.1a0.787,0.787,0,0,0-1.079.17,0.758,0.758,0,0,0,.026.93h-4.906l1.222-1.66h0l8.2-11.16,16.076,11.54Zm-9.409-3.64a6.465,6.465,0,1,0,6.537,6.47A6.509,6.509,0,0,0,336.946,1081.42Zm0,11.4a4.935,4.935,0,1,1,4.992-4.93A4.966,4.966,0,0,1,336.946,1092.82Zm2.193-5.07a0.775,0.775,0,0,0-1.092,0l-2.059,2.04a0.759,0.759,0,0,0,0,1.08,0.788,0.788,0,0,0,1.092,0l2.059-2.04A0.757,0.757,0,0,0,339.139,1087.75Zm-0.823-3.25a0.775,0.775,0,0,0-1.092,0l-2.265,2.23a0.759,0.759,0,0,0,0,1.08,0.763,0.763,0,0,0,1.092,0l2.265-2.24A0.747,0.747,0,0,0,338.316,1084.5Z" transform="translate(-309 -1057)"/>
</svg>
