<svg xmlns="http://www.w3.org/2000/svg" width="12" height="12" viewBox="0 0 12 12">
  <metadata><?xpacket begin="﻿" id="W5M0MpCehiHzreSzNTczkc9d"?>
<x:xmpmeta xmlns:x="adobe:ns:meta/" x:xmptk="Adobe XMP Core 5.6-c140 79.160451, 2017/05/06-01:08:21        ">
   <rdf:RDF xmlns:rdf="http://www.w3.org/1999/02/22-rdf-syntax-ns#">
      <rdf:Description rdf:about=""/>
   </rdf:RDF>
</x:xmpmeta>
                                                                                                    
                                                                                                    
                                                                                                    
                                                                                                    
                                                                                                    
                                                                                                    
                                                                                                    
                                                                                                    
                                                                                                    
                                                                                                    
                                                                                                    
                                                                                                    
                                                                                                    
                                                                                                    
                                                                                                    
                                                                                                    
                                                                                                    
                                                                                                    
                                                                                                    
                                                                                                    
                           
<?xpacket end="w"?></metadata>
<defs>
    <style>
      .cls-1 {
        fill: #1fa09b;
        fill-rule: evenodd;
      }
    </style>
  </defs>
  <path id="Forma_1" data-name="Forma 1" class="cls-1" d="M1453.73,1695.19a0.26,0.26,0,0,1,0-.38l4.11-4.11a0.543,0.543,0,0,0,0-.77l-0.77-.77a0.6,0.6,0,0,0-.39-0.16,0.492,0.492,0,0,0-.38.16l-4.11,4.11a0.26,0.26,0,0,1-.38,0l-4.11-4.11a0.543,0.543,0,0,0-.77,0l-0.77.77a0.543,0.543,0,0,0,0,.77l4.11,4.11a0.26,0.26,0,0,1,0,.38l-4.11,4.11a0.543,0.543,0,0,0,0,.77l0.77,0.77a0.543,0.543,0,0,0,.77,0l4.11-4.11a0.26,0.26,0,0,1,.38,0l4.11,4.11a0.543,0.543,0,0,0,.77,0l0.77-.77a0.543,0.543,0,0,0,0-.77Z" transform="translate(-1446 -1689)"/>
</svg>
