<svg xmlns="http://www.w3.org/2000/svg" width="43" height="48.03" viewBox="0 0 43 48.03">
  <metadata><?xpacket begin="﻿" id="W5M0MpCehiHzreSzNTczkc9d"?>
<x:xmpmeta xmlns:x="adobe:ns:meta/" x:xmptk="Adobe XMP Core 5.6-c140 79.160451, 2017/05/06-01:08:21        ">
   <rdf:RDF xmlns:rdf="http://www.w3.org/1999/02/22-rdf-syntax-ns#">
      <rdf:Description rdf:about=""/>
   </rdf:RDF>
</x:xmpmeta>
                                                                                                    
                                                                                                    
                                                                                                    
                                                                                                    
                                                                                                    
                                                                                                    
                                                                                                    
                                                                                                    
                                                                                                    
                                                                                                    
                                                                                                    
                                                                                                    
                                                                                                    
                                                                                                    
                                                                                                    
                                                                                                    
                                                                                                    
                                                                                                    
                                                                                                    
                                                                                                    
                           
<?xpacket end="w"?></metadata>
<defs>
    <style>
      .cls-1 {
        fill: #2fccc6;
        fill-rule: evenodd;
      }
    </style>
  </defs>
  <path class="cls-1" d="M1319.77,1079.04a0.745,0.745,0,0,0-.86.61l-1.16,6.82a0.75,0.75,0,0,0,.61.87,0.528,0.528,0,0,0,.13.01,0.748,0.748,0,0,0,.73-0.62l1.17-6.82A0.757,0.757,0,0,0,1319.77,1079.04Zm1.97-10.8-4.82-1.67a0.744,0.744,0,0,0-.95.46,0.763,0.763,0,0,0,.46.96l4.22,1.47-0.65,3.77a0.765,0.765,0,0,0,.62.87,0.487,0.487,0,0,0,.12.01,0.751,0.751,0,0,0,.74-0.62l0.75-4.41A0.753,0.753,0,0,0,1321.74,1068.24Zm-6.81-2.37-3.19-1.11a0.751,0.751,0,1,0-.49,1.42l3.19,1.11a0.687,0.687,0,0,0,.24.05A0.757,0.757,0,0,0,1314.93,1065.87Zm-6.08,12.07a5.14,5.14,0,1,0-2.7,0,7.976,7.976,0,0,0-6.58,7.86v4.01a0.749,0.749,0,0,0,.75.75h14.36a0.749,0.749,0,0,0,.75-0.75v-4.01A7.976,7.976,0,0,0,1308.85,1077.94Zm-4.99-4.98a3.64,3.64,0,1,1,3.64,3.66A3.651,3.651,0,0,1,1303.86,1072.96Zm10.08,16.1h-12.88v-3.26a6.44,6.44,0,1,1,12.88,0v3.26h0Zm11.18-22.83-17.38-6.04a0.662,0.662,0,0,0-.48,0l-17.38,6.04a0.77,0.77,0,0,0-.49.84l4.15,24.33a0.726,0.726,0,0,0,.31.49l13.22,9.3a0.73,0.73,0,0,0,.86,0l13.22-9.3a0.726,0.726,0,0,0,.31-0.49l4.15-24.33A0.763,0.763,0,0,0,1325.12,1066.23Zm-5.08,24.61-12.54,8.82-12.54-8.82-3.99-23.39,16.53-5.75,16.53,5.75Zm8.46-26.61-20.76-7.22a0.663,0.663,0,0,0-.48,0l-20.76,7.22a0.751,0.751,0,0,0-.49.83l4.79,28.08a0.7,0.7,0,0,0,.31.49l15.96,11.23a0.73,0.73,0,0,0,.86,0l15.96-11.23a0.7,0.7,0,0,0,.31-0.49l4.79-28.08A0.751,0.751,0,0,0,1328.5,1064.23Zm-5.72,28.35-15.28,10.75-15.28-10.75-4.63-27.14,19.91-6.93,19.91,6.93Z" transform="translate(-1286 -1056.97)"/>
</svg>
