<svg xmlns="http://www.w3.org/2000/svg" width="45" height="49" viewBox="0 0 45 49">
  <metadata><?xpacket begin="﻿" id="W5M0MpCehiHzreSzNTczkc9d"?>
<x:xmpmeta xmlns:x="adobe:ns:meta/" x:xmptk="Adobe XMP Core 5.6-c140 79.160451, 2017/05/06-01:08:21        ">
   <rdf:RDF xmlns:rdf="http://www.w3.org/1999/02/22-rdf-syntax-ns#">
      <rdf:Description rdf:about=""/>
   </rdf:RDF>
</x:xmpmeta>
                                                                                                    
                                                                                                    
                                                                                                    
                                                                                                    
                                                                                                    
                                                                                                    
                                                                                                    
                                                                                                    
                                                                                                    
                                                                                                    
                                                                                                    
                                                                                                    
                                                                                                    
                                                                                                    
                                                                                                    
                                                                                                    
                                                                                                    
                                                                                                    
                                                                                                    
                                                                                                    
                           
<?xpacket end="w"?></metadata>
<defs>
    <style>
      .cls-1 {
        fill: #2fccc6;
        fill-rule: evenodd;
      }
    </style>
  </defs>
  <path class="cls-1" d="M824.775,1096.2l-10.2-10.1,4.127-1.49a0.761,0.761,0,0,0,.5-0.85l-1.106-6.21,3.183-5.46a0.763,0.763,0,0,0-.172-0.97l-4.877-4.05-1.1-6.21a0.774,0.774,0,0,0-.76-0.63h-6.366l-4.877-4.05a0.773,0.773,0,0,0-.992,0l-4.876,4.05H790.88a0.773,0.773,0,0,0-.759.63l-1.106,6.21-4.877,4.05a0.764,0.764,0,0,0-.172.97l3.183,5.46-1.105,6.21a0.761,0.761,0,0,0,.5.85l3.952,1.43-10.267,10.16a0.768,0.768,0,0,0,.481,1.31l6.333,0.52,0.527,6.27a0.754,0.754,0,0,0,.5.65,0.813,0.813,0,0,0,.265.05,0.8,0.8,0,0,0,.546-0.22l13.619-13.49,13.619,13.49a0.8,0.8,0,0,0,.546.22,0.813,0.813,0,0,0,.265-0.05,0.754,0.754,0,0,0,.5-0.65l0.528-6.27,6.332-.52a0.779,0.779,0,0,0,.66-0.5A0.769,0.769,0,0,0,824.775,1096.2Zm-35.809,6.33-0.444-5.27a0.762,0.762,0,0,0-.705-0.7l-5.325-.44,9.6-9.51,0.43,0.16,3.183,5.46a0.775,0.775,0,0,0,.668.38,0.617,0.617,0,0,0,.264-0.05l3.762-1.35Zm14.282-13.52-0.365-.13a0.8,0.8,0,0,0-.528,0l-0.541.19-5.1,1.84-3-5.15a0.779,0.779,0,0,0-.4-0.33l-1.155-.42-4.482-1.62,1.042-5.85a0.747,0.747,0,0,0-.092-0.51l-3-5.15,4.6-3.82a0.73,0.73,0,0,0,.264-0.45l1.042-5.85h6a0.752,0.752,0,0,0,.5-0.18l4.6-3.82,4.6,3.82a0.754,0.754,0,0,0,.5.18h6l1.042,5.85a0.733,0.733,0,0,0,.263.45l4.6,3.82-3,5.15a0.742,0.742,0,0,0-.092.51l1.042,5.85-4.657,1.68-0.981.36a0.776,0.776,0,0,0-.4.33l-3,5.15-5.271-1.9h0Zm13.935,7.55a0.762,0.762,0,0,0-.705.7l-0.444,5.27-11.569-11.46,4.137,1.49a0.61,0.61,0,0,0,.263.05,0.778,0.778,0,0,0,.669-0.38l3.182-5.46,0.256-.09,9.536,9.44Zm-14.683-34a12.171,12.171,0,1,0,12.292,12.17A12.246,12.246,0,0,0,802.5,1062.56Zm0,22.82a10.646,10.646,0,1,1,10.75-10.65A10.714,10.714,0,0,1,802.5,1085.38Zm8.879-13.08a0.766,0.766,0,0,0-.734-0.53h-5.694l-1.759-5.36a0.773,0.773,0,0,0-1.468,0l-1.759,5.36h-5.694a0.766,0.766,0,0,0-.734.53,0.755,0.755,0,0,0,.28.85l4.607,3.32-1.76,5.36a0.773,0.773,0,0,0,.734,1,0.765,0.765,0,0,0,.454-0.15l4.606-3.31,4.606,3.31a0.769,0.769,0,0,0,1.188-.85l-1.76-5.36,4.607-3.32A0.755,0.755,0,0,0,811.379,1072.3Zm-6.247,3.26a0.752,0.752,0,0,0-.28.85l1.2,3.66-3.139-2.26a0.759,0.759,0,0,0-.906,0l-3.14,2.26,1.2-3.66a0.752,0.752,0,0,0-.28-0.85l-3.139-2.26h3.88a0.765,0.765,0,0,0,.734-0.53l1.2-3.65,1.2,3.65a0.766,0.766,0,0,0,.734.53h3.88Z" transform="translate(-780 -1056)"/>
</svg>
