<svg xmlns="http://www.w3.org/2000/svg" width="21" height="21" viewBox="0 0 21 21">
  <metadata><?xpacket begin="﻿" id="W5M0MpCehiHzreSzNTczkc9d"?>
<x:xmpmeta xmlns:x="adobe:ns:meta/" x:xmptk="Adobe XMP Core 5.6-c140 79.160451, 2017/05/06-01:08:21        ">
   <rdf:RDF xmlns:rdf="http://www.w3.org/1999/02/22-rdf-syntax-ns#">
      <rdf:Description rdf:about=""/>
   </rdf:RDF>
</x:xmpmeta>
                                                                                                    
                                                                                                    
                                                                                                    
                                                                                                    
                                                                                                    
                                                                                                    
                                                                                                    
                                                                                                    
                                                                                                    
                                                                                                    
                                                                                                    
                                                                                                    
                                                                                                    
                                                                                                    
                                                                                                    
                                                                                                    
                                                                                                    
                                                                                                    
                                                                                                    
                                                                                                    
                           
<?xpacket end="w"?></metadata>
<defs>
    <style>
      .cls-1 {
        fill: #2fccc6;
        fill-rule: evenodd;
      }
    </style>
  </defs>
  <path id="Forma_1" data-name="Forma 1" class="cls-1" d="M1390.44,8957h-7.88a6.564,6.564,0,0,0-6.56,6.56v7.88a6.564,6.564,0,0,0,6.56,6.56h7.88a6.564,6.564,0,0,0,6.56-6.56v-7.88A6.564,6.564,0,0,0,1390.44,8957Zm4.59,14.44a4.6,4.6,0,0,1-4.59,4.59h-7.88a4.6,4.6,0,0,1-4.59-4.59v-7.88a4.6,4.6,0,0,1,4.59-4.59h7.88a4.6,4.6,0,0,1,4.59,4.59v7.88Zm-8.53-9.19a5.25,5.25,0,1,0,5.25,5.25A5.249,5.249,0,0,0,1386.5,8962.25Zm0,8.53a3.28,3.28,0,1,1,3.28-3.28A3.282,3.282,0,0,1,1386.5,8970.78Zm5.64-9.62a0.7,0.7,0,1,1,0,1.4A0.7,0.7,0,1,1,1392.14,8961.16Z" transform="translate(-1376 -8957)"/>
</svg>
