<svg xmlns="http://www.w3.org/2000/svg" width="23" height="33" viewBox="0 0 23 33">
  <metadata><?xpacket begin="﻿" id="W5M0MpCehiHzreSzNTczkc9d"?>
<x:xmpmeta xmlns:x="adobe:ns:meta/" x:xmptk="Adobe XMP Core 5.6-c140 79.160451, 2017/05/06-01:08:21        ">
   <rdf:RDF xmlns:rdf="http://www.w3.org/1999/02/22-rdf-syntax-ns#">
      <rdf:Description rdf:about=""/>
   </rdf:RDF>
</x:xmpmeta>
                                                                                                    
                                                                                                    
                                                                                                    
                                                                                                    
                                                                                                    
                                                                                                    
                                                                                                    
                                                                                                    
                                                                                                    
                                                                                                    
                                                                                                    
                                                                                                    
                                                                                                    
                                                                                                    
                                                                                                    
                                                                                                    
                                                                                                    
                                                                                                    
                                                                                                    
                                                                                                    
                           
<?xpacket end="w"?></metadata>
<defs>
    <style>
      .cls-1 {
        fill: #87aaa9;
        fill-rule: evenodd;
      }
    </style>
  </defs>
  <path id="Forma_1" data-name="Forma 1" class="cls-1" d="M478.606,109.233a4.218,4.218,0,1,0,4.2,4.218A4.214,4.214,0,0,0,478.606,109.233Zm0,7.231a3.013,3.013,0,1,1,3-3.013A3.009,3.009,0,0,1,478.606,116.464Zm8.025-11.077a11.462,11.462,0,0,0-16.263,0c-4.019,4.038-4.519,11.636-1.082,16.241L478.5,135l9.2-13.351C491.151,117.023,490.651,109.425,486.631,105.387Zm0.1,15.555L478.5,132.88l-8.24-11.957c-3.118-4.177-2.671-11.039.957-14.684a10.267,10.267,0,0,1,14.567,0C489.412,109.884,489.858,116.746,486.727,120.942Z" transform="translate(-467 -102)"/>
</svg>
