<svg xmlns="http://www.w3.org/2000/svg" width="20" height="27" viewBox="0 0 20 27">
  <metadata><?xpacket begin="﻿" id="W5M0MpCehiHzreSzNTczkc9d"?>
<x:xmpmeta xmlns:x="adobe:ns:meta/" x:xmptk="Adobe XMP Core 5.6-c140 79.160451, 2017/05/06-01:08:21        ">
   <rdf:RDF xmlns:rdf="http://www.w3.org/1999/02/22-rdf-syntax-ns#">
      <rdf:Description rdf:about=""/>
   </rdf:RDF>
</x:xmpmeta>
                                                                                                    
                                                                                                    
                                                                                                    
                                                                                                    
                                                                                                    
                                                                                                    
                                                                                                    
                                                                                                    
                                                                                                    
                                                                                                    
                                                                                                    
                                                                                                    
                                                                                                    
                                                                                                    
                                                                                                    
                                                                                                    
                                                                                                    
                                                                                                    
                                                                                                    
                                                                                                    
                           
<?xpacket end="w"?></metadata>
<defs>
    <style>
      .cls-1 {
        fill: #2fccc6;
        fill-rule: evenodd;
      }
    </style>
  </defs>
  <path id="Forma_1" data-name="Forma 1" class="cls-1" d="M768.6,533.328a3.2,3.2,0,0,0-.672.057v4.2a2.757,2.757,0,0,0,.516.029,2.012,2.012,0,0,0,2.218-2.249A1.861,1.861,0,0,0,768.6,533.328Zm-5.731-.019a2.61,2.61,0,0,0-.613.057v1.9a2.344,2.344,0,0,0,.5.038,1.085,1.085,0,0,0,1.275-1.048A0.972,0.972,0,0,0,762.866,533.309ZM779,519.47a0.519,0.519,0,0,0-.129-0.343l-5.315-5.946,0,0a0.57,0.57,0,0,0-.108-0.088l-0.035-.021a0.521,0.521,0,0,0-.107-0.043l-0.029-.01a0.568,0.568,0,0,0-.124-0.015H760.081A1.071,1.071,0,0,0,759,514.059v24.882A1.071,1.071,0,0,0,760.081,540h17.838A1.071,1.071,0,0,0,779,538.941V519.529C779,519.51,779,519.49,779,519.47Zm-14.106,16.269a3.082,3.082,0,0,1-2.131.677,3.792,3.792,0,0,1-.5-0.029v2.3h-1.469v-6.336a12.394,12.394,0,0,1,2-.134,3.2,3.2,0,0,1,2,.515,1.861,1.861,0,0,1,.7,1.486A2.031,2.031,0,0,1,764.889,535.739Zm6.256,2.182a4.777,4.777,0,0,1-3.025.829,13.249,13.249,0,0,1-1.683-.1v-6.308a13.47,13.47,0,0,1,2-.134,4.291,4.291,0,0,1,2.685.686,2.821,2.821,0,0,1,1.109,2.421A3.224,3.224,0,0,1,771.145,537.921Zm6.072-4.469H774.7v1.467h2.354V536.1H774.7v2.582h-1.488v-6.422h4.008v1.191Zm-17.136-2.474V514.059H772.6v5.417a0.535,0.535,0,0,0,.54.53h4.775v10.972H760.081Zm14.465-6.6c-0.032,0-.794-0.071-1.963-0.071-0.366,0-.735.007-1.1,0.021a57.867,57.867,0,0,1-5.213-4.348c0.019-.1.031-0.187,0.037-0.251a3.722,3.722,0,0,0-.44-2.77,1.087,1.087,0,0,0-1.112-.285,1.321,1.321,0,0,0-.912.831,2.249,2.249,0,0,0,.837,2.048c0.011,0.012.259,0.266,0.71,0.7-0.293,1.368-1.06,4.321-1.432,5.739a7.582,7.582,0,0,0-2.166,1.64l-0.037.042-0.024.049a1.689,1.689,0,0,0-.127,1.238,0.856,0.856,0,0,0,.516.479l0.065,0.017a0.879,0.879,0,0,0,.161.012c0.451,0,1.564-.232,2.161-2.387l0.145-.546a18.021,18.021,0,0,1,6.577-1.4c0.972,0.705,1.938,1.353,2.874,1.927l0.031,0.018a2.3,2.3,0,0,0,.937.221h0a1.375,1.375,0,0,0,1.376-1.133l0.01-.049a1.336,1.336,0,0,0-.3-1.072A2.462,2.462,0,0,0,774.546,524.379Zm-12.182,4.295a0.055,0.055,0,0,1-.008-0.015,0.948,0.948,0,0,1,.088-0.55,6.352,6.352,0,0,1,1.219-1.022C763.2,528.541,762.537,528.667,762.364,528.674Zm2.911-9.66h0a1.55,1.55,0,0,1-.655-1.276,0.535,0.535,0,0,1,.345-0.3,0.267,0.267,0,0,1,.3.052,2.792,2.792,0,0,1,.263,1.775C765.364,519.106,765.275,519.014,765.275,519.014Zm-0.363,6.538,0.012-.045h0c0.353-1.352.861-3.333,1.154-4.6l0.01,0.01v-0.006c0.946,0.872,2.4,2.148,4.133,3.476H770.2l0.029,0.022A18.7,18.7,0,0,0,764.912,525.552ZM775.656,526a0.559,0.559,0,0,1-.584.51h0a1.485,1.485,0,0,1-.556-0.129c-0.638-.392-1.29-0.818-1.949-1.275h0.016c1.129,0,1.88.067,1.91,0.069a1.7,1.7,0,0,1,1.042.39A0.538,0.538,0,0,1,775.656,526Z" transform="translate(-759 -513)"/>
</svg>
