<svg xmlns="http://www.w3.org/2000/svg" width="33" height="33" viewBox="0 0 33 33">
  <metadata><?xpacket begin="﻿" id="W5M0MpCehiHzreSzNTczkc9d"?>
<x:xmpmeta xmlns:x="adobe:ns:meta/" x:xmptk="Adobe XMP Core 5.6-c140 79.160451, 2017/05/06-01:08:21        ">
   <rdf:RDF xmlns:rdf="http://www.w3.org/1999/02/22-rdf-syntax-ns#">
      <rdf:Description rdf:about=""/>
   </rdf:RDF>
</x:xmpmeta>
                                                                                                    
                                                                                                    
                                                                                                    
                                                                                                    
                                                                                                    
                                                                                                    
                                                                                                    
                                                                                                    
                                                                                                    
                                                                                                    
                                                                                                    
                                                                                                    
                                                                                                    
                                                                                                    
                                                                                                    
                                                                                                    
                                                                                                    
                                                                                                    
                                                                                                    
                                                                                                    
                           
<?xpacket end="w"?></metadata>
<defs>
    <style>
      .cls-1 {
        fill: #87aaa9;
        fill-rule: evenodd;
      }
    </style>
  </defs>
  <path id="Forma_1" data-name="Forma 1" class="cls-1" d="M1593.43,104h-13.86a2.427,2.427,0,0,0-2.42,2.423v28.154a2.427,2.427,0,0,0,2.42,2.423h13.86a2.427,2.427,0,0,0,2.42-2.422V106.423A2.427,2.427,0,0,0,1593.43,104Zm-15.18,4.4h16.5v20.9h-16.5V108.4Zm1.32-3.3h13.86a1.322,1.322,0,0,1,1.32,1.323V107.3h-16.5v-0.877A1.322,1.322,0,0,1,1579.57,105.1Zm13.86,30.8h-13.86a1.321,1.321,0,0,1-1.32-1.322V130.4h16.5v4.178A1.321,1.321,0,0,1,1593.43,135.9Zm-6.93-4.95a2.2,2.2,0,1,0,2.2,2.2A2.2,2.2,0,0,0,1586.5,130.95Zm0,3.3a1.1,1.1,0,1,1,1.1-1.1A1.1,1.1,0,0,1,1586.5,134.249Zm-2.2-27.5h2.2a0.55,0.55,0,0,0,0-1.1h-2.2A0.55,0.55,0,1,0,1584.3,106.75Zm3.85,0h0.55a0.55,0.55,0,0,0,0-1.1h-0.55A0.55,0.55,0,0,0,1588.15,106.75Zm12.99-.237a0.552,0.552,0,0,0-.78,0,0.558,0.558,0,0,0,0,.777,5.268,5.268,0,0,1,0,7.454,0.551,0.551,0,0,0,.78.778A6.384,6.384,0,0,0,1601.14,106.513Zm-2.32,1.252a0.552,0.552,0,0,0-.78,0,0.558,0.558,0,0,0,0,.777,3.6,3.6,0,0,1,0,5.1,0.55,0.55,0,0,0,.39.939,0.541,0.541,0,0,0,.39-0.161A4.705,4.705,0,0,0,1598.82,107.765Zm-26.18-.475a0.558,0.558,0,0,0,0-.777,0.552,0.552,0,0,0-.78,0,6.384,6.384,0,0,0,0,9.009,0.551,0.551,0,1,0,.78-0.778A5.268,5.268,0,0,1,1572.64,107.29Zm2.31,0.322a0.542,0.542,0,0,0-.77,0,4.707,4.707,0,0,0,0,6.659,0.541,0.541,0,0,0,.39.161,0.519,0.519,0,0,0,.38-0.161,0.541,0.541,0,0,0,0-.778,3.625,3.625,0,0,1,0-5.1A0.541,0.541,0,0,0,1574.95,107.612Z" transform="translate(-1570 -104)"/>
</svg>
