<svg xmlns="http://www.w3.org/2000/svg" width="124" height="109" viewBox="0 0 124 109">
  <metadata><?xpacket begin="﻿" id="W5M0MpCehiHzreSzNTczkc9d"?>
<x:xmpmeta xmlns:x="adobe:ns:meta/" x:xmptk="Adobe XMP Core 5.6-c140 79.160451, 2017/05/06-01:08:21        ">
   <rdf:RDF xmlns:rdf="http://www.w3.org/1999/02/22-rdf-syntax-ns#">
      <rdf:Description rdf:about=""/>
   </rdf:RDF>
</x:xmpmeta>
                                                                                                    
                                                                                                    
                                                                                                    
                                                                                                    
                                                                                                    
                                                                                                    
                                                                                                    
                                                                                                    
                                                                                                    
                                                                                                    
                                                                                                    
                                                                                                    
                                                                                                    
                                                                                                    
                                                                                                    
                                                                                                    
                                                                                                    
                                                                                                    
                                                                                                    
                                                                                                    
                           
<?xpacket end="w"?></metadata>
<defs>
    <style>
      .cls-1 {
        fill: #2fccc6;
        fill-rule: evenodd;
        opacity: 0.1;
      }
    </style>
  </defs>
  <path id="Forma_1" data-name="Forma 1" class="cls-1" d="M360.817,1883.63a5.94,5.94,0,0,0,3-7.98l-4.9-10.27a5.991,5.991,0,0,0-7.8-2.9,69.04,69.04,0,0,0-21.607,13.97,52.077,52.077,0,0,0-14.5,22.84c-2.6,8.58-4,20.25-4,35.11v30.62a6.007,6.007,0,0,0,6,5.98h39.313a6.008,6.008,0,0,0,6-5.98v-39.2a6.017,6.017,0,0,0-6-5.99H337.51c0.2-10.07,2.6-18.15,7-24.23C348.113,1890.71,353.515,1886.72,360.817,1883.63Zm70.623,0a5.941,5.941,0,0,0,3-7.98l-4.9-10.17a5.99,5.99,0,0,0-7.8-2.9,72.6,72.6,0,0,0-21.507,13.87,53.187,53.187,0,0,0-14.605,22.94q-3.9,12.57-3.9,35.01v30.62a6.008,6.008,0,0,0,6,5.98h39.312a6.008,6.008,0,0,0,6-5.98v-39.2a6.017,6.017,0,0,0-6-5.99H408.132c0.2-10.07,2.6-18.15,7-24.23C418.736,1890.71,424.137,1886.72,431.44,1883.63Z" transform="translate(-311 -1862)"/>
</svg>
