<svg xmlns="http://www.w3.org/2000/svg" width="31" height="31" viewBox="0 0 31 31">
  <metadata><?xpacket begin="﻿" id="W5M0MpCehiHzreSzNTczkc9d"?>
<x:xmpmeta xmlns:x="adobe:ns:meta/" x:xmptk="Adobe XMP Core 5.6-c140 79.160451, 2017/05/06-01:08:21        ">
   <rdf:RDF xmlns:rdf="http://www.w3.org/1999/02/22-rdf-syntax-ns#">
      <rdf:Description rdf:about=""/>
   </rdf:RDF>
</x:xmpmeta>
                                                                                                    
                                                                                                    
                                                                                                    
                                                                                                    
                                                                                                    
                                                                                                    
                                                                                                    
                                                                                                    
                                                                                                    
                                                                                                    
                                                                                                    
                                                                                                    
                                                                                                    
                                                                                                    
                                                                                                    
                                                                                                    
                                                                                                    
                                                                                                    
                                                                                                    
                                                                                                    
                           
<?xpacket end="w"?></metadata>
<defs>
    <style>
      .cls-1 {
        fill: #87aaa9;
        fill-rule: evenodd;
      }
    </style>
  </defs>
  <path class="cls-1" d="M1344.07,121.187a15.693,15.693,0,0,0,.26-2.635,14.758,14.758,0,0,0-14.73-14.726,15.121,15.121,0,0,0-2.63.259,8.615,8.615,0,0,0-4.24-1.085,8.756,8.756,0,0,0-7.65,12.969,15.654,15.654,0,0,0-.25,2.634,14.748,14.748,0,0,0,14.72,14.725,15.232,15.232,0,0,0,2.64-.258,8.681,8.681,0,0,0,4.23.93,8.491,8.491,0,0,0,8.58-8.577A8.711,8.711,0,0,0,1344.07,121.187Zm-7.65,11.78a7.786,7.786,0,0,1-3.87-.879l-0.16-.1-0.2.052a15.232,15.232,0,0,1-2.64.258,13.716,13.716,0,0,1-13.69-13.692,14.7,14.7,0,0,1,.26-2.634l0.05-.207-0.1-.155a7.939,7.939,0,0,1-1.04-3.875,7.717,7.717,0,0,1,7.7-7.7,7.912,7.912,0,0,1,3.88,1.034l0.15,0.1,0.21-.052a15.119,15.119,0,0,1,2.63-.258,13.718,13.718,0,0,1,13.7,13.692,15.693,15.693,0,0,1-.26,2.635l-0.05.206,0.1,0.155a7.8,7.8,0,0,1,.88,3.875A7.459,7.459,0,0,1,1336.42,132.967Zm-5.58-16.947c-3.87-.775-4.44-1.756-4.49-2.015a0.875,0.875,0,0,1,.41-0.879,5.024,5.024,0,0,1,3.67-.774,2.332,2.332,0,0,1,1.6.981c0.88,1.7,1.81,3.049,3.72,2.583a2.125,2.125,0,0,0,1.4-1.188,3.41,3.41,0,0,0-.11-2.841c-0.51-.982-2.73-3.514-7.07-3.514-4.14,0-8.89,1.5-8.89,5.736,0,3.358,2.94,5.734,8.06,6.457,2.58,0.362,3.41,1.189,3.67,1.655a1.2,1.2,0,0,1,.05.929c-0.42.981-1.81,1.911-3.98,1.7a4.182,4.182,0,0,1-3.46-2.945,2.379,2.379,0,0,0-2.53-1.446,2.607,2.607,0,0,0-1.71,1.084,2.931,2.931,0,0,0-.15,2.687c0.57,1.757,2.48,4.65,8.83,4.65,5.32,0,8.53-3.358,8.58-6.458C1338.44,119.017,1336.11,117.054,1330.84,116.02Zm-1.03,11.831c-4.24,0-7.03-1.394-7.85-3.926a1.955,1.955,0,0,1,.05-1.808,1.513,1.513,0,0,1,.98-0.62h0.15a1.084,1.084,0,0,1,1.19.671,5.282,5.282,0,0,0,4.34,3.669c2.74,0.258,4.5-1.034,5.07-2.377a2.164,2.164,0,0,0-.11-1.86c-0.41-.775-1.55-1.757-4.39-2.17-2.69-.413-7.18-1.6-7.18-5.425,0-3.462,4.24-4.7,7.85-4.7,3.83,0,5.74,2.118,6.15,2.946a2.568,2.568,0,0,1,.05,1.962,0.945,0.945,0,0,1-.72.62c-0.93.207-1.5,0-2.58-2.066a3.192,3.192,0,0,0-2.33-1.5,6.011,6.011,0,0,0-4.54,1.033,1.959,1.959,0,0,0-.73,1.911c0.36,1.241,2.07,2.119,5.32,2.739,5.94,1.188,6.77,3.358,6.77,5.374C1337.3,125.01,1334.51,127.851,1329.81,127.851Z" transform="translate(-1314 -103)"/>
</svg>
