<svg xmlns="http://www.w3.org/2000/svg" width="23" height="33"><path data-name="Forma 1" d="M11.606 7.233a4.218 4.218 0 1 0 4.2 4.218 4.214 4.214 0 0 0-4.2-4.218zm0 7.231a3.013 3.013 0 1 1 3-3.013 3.009 3.009 0 0 1-3 3.013zm8.025-11.077a11.462 11.462 0 0 0-16.263 0C-.651 7.425-1.151 15.023 2.286 19.628L11.5 33l9.2-13.351c3.451-4.626 2.951-12.224-1.069-16.262zm.1 15.555L11.5 30.88 3.26 18.923C.142 14.746.589 7.884 4.217 4.239a10.267 10.267 0 0 1 14.567 0c3.628 3.645 4.074 10.507.943 14.703z" fill="#87aaa9" fill-rule="evenodd"/></svg>